<svg height="512pt" viewBox="0 0 512 512" width="512pt" xmlns="http://www.w3.org/2000/svg" xmlns:xlink="http://www.w3.org/1999/xlink"><linearGradient id="a" gradientUnits="userSpaceOnUse" x1="0" x2="512" y1="256" y2="256"><stop offset="0" stop-color="#00f1ff"/><stop offset=".231" stop-color="#00d8ff"/><stop offset=".5138" stop-color="#00c0ff"/><stop offset=".7773" stop-color="#00b2ff"/><stop offset="1" stop-color="#00adff"/></linearGradient><path d="m512 256c0 141.386719-114.613281 256-256 256s-256-114.613281-256-256 114.613281-256 256-256 256 114.613281 256 256zm0 0" fill="url(#a)"/><path d="m256 85.285156c-94.132812 0-170.714844 76.582032-170.714844 170.714844s76.582032 170.714844 170.714844 170.714844c31.214844 0 61.761719-8.511719 88.332031-24.605469 7.085938-4.292969 9.351563-13.515625 5.058594-20.601563-4.292969-7.085937-13.515625-9.351562-20.601563-5.058593-21.882812 13.257812-47.054687 20.265625-72.789062 20.265625-72.523438 0-132.398438-55.152344-139.914062-125.714844h80.59375c6.707031 26.507812 30.753906 46.1875 59.320312 46.1875 28.5625 0 52.613281-19.679688 59.316406-46.1875h80.578125c-2.425781 22.414062-10.265625 43.980469-23.042969 63.097656-4.605468 6.886719-2.753906 16.203125 4.132813 20.804688 6.886719 4.605468 16.203125 2.753906 20.804687-4.132813 18.921876-28.300781 28.925782-61.070312 28.925782-94.769531 0-94.132812-76.582032-170.714844-170.714844-170.714844zm0 30c72.523438 0 132.398438 55.152344 139.914062 125.714844h-80.59375c-6.707031-26.507812-30.753906-46.1875-59.320312-46.1875-28.5625 0-52.613281 19.675781-59.320312 46.1875h-80.589844c7.511718-70.5625 67.386718-125.714844 139.910156-125.714844zm0 171.902344c-17.195312 0-31.1875-13.992188-31.1875-31.1875s13.992188-31.1875 31.1875-31.1875 31.183594 13.992188 31.183594 31.1875-13.988282 31.1875-31.183594 31.1875zm0 0" fill="#fff"/></svg>